<?xml version="1.0" encoding="UTF-8" standalone="no"?>
<svg
   xmlns:dc="http://purl.org/dc/elements/1.1/"
   xmlns:cc="http://creativecommons.org/ns#"
   xmlns:rdf="http://www.w3.org/1999/02/22-rdf-syntax-ns#"
   xmlns:svg="http://www.w3.org/2000/svg"
   xmlns="http://www.w3.org/2000/svg"
   xml:space="preserve"
   enable-background="new 0 0 663 409"
   viewBox="0 0 640 325"
   height="325"
   width="640"
   y="0px"
   x="0px"
   id="Layer_1"
   version="1.1"><title
   id="title4139">Splat 11</title><metadata
   id="metadata8"><rdf:RDF><cc:Work
       rdf:about=""><dc:format>image/svg+xml</dc:format><dc:type
         rdf:resource="http://purl.org/dc/dcmitype/StillImage" /><dc:title>Splat 11</dc:title><dc:subject><rdf:Bag><rdf:li>glop</rdf:li><rdf:li>goo</rdf:li><rdf:li>goop</rdf:li><rdf:li>grunge</rdf:li><rdf:li>gunge</rdf:li><rdf:li>gunk</rdf:li><rdf:li>Halloween</rdf:li><rdf:li>holiday</rdf:li><rdf:li>ink</rdf:li><rdf:li>paint</rdf:li><rdf:li>slime</rdf:li><rdf:li>spill</rdf:li><rdf:li>splat</rdf:li></rdf:Bag></dc:subject><dc:description>black splat</dc:description><dc:creator><cc:Agent><dc:title>NicholasJudy456</dc:title></cc:Agent></dc:creator><dc:publisher><cc:Agent><dc:title>Openclipart.org</dc:title></cc:Agent></dc:publisher><dc:identifier>https://openclipart.org/</dc:identifier><dc:source>https://openclipart.org/user-detail/NicholasJudy456</dc:source></cc:Work></rdf:RDF></metadata><defs
   id="defs6" />  <path
   id="path4136"
   d="m 133.07947,308.97219 c -21.60555,-1.29069 -7.92886,-38.88574 -17.71569,-37.31884 -9.56024,7.93595 -25.235137,9.44615 -27.428894,-5.20285 -0.827305,-15.87578 41.418254,-29.84374 17.626204,-41.08074 -10.971525,2.03433 -23.526036,2.45899 -30.859071,12.11838 -12.75097,16.39447 -46.03313,31.5349 -57.210724,6.16221 -6.229439,-7.51221 0.813398,-14.4851 3.897631,-21.61884 2.890596,-7.93424 7.443708,-14.29035 15.61979,-17.20737 12.280529,-16.64888 43.12694,4.69318 48.33469,-6.55648 -15.892593,-43.94854 27.365524,-56.88026 65.804524,-55.36039 9.46262,-10.29628 3.48874,-21.78023 -6.80621,-27.43797 -9.24371,-6.61099 -16.262,-25.660678 -2.66977,-30.931318 21.18126,-21.13791 27.79928,29.146968 47.0832,8.932 24.66085,36.688768 39.51955,-20.117312 67.34205,-5.72705 11.50707,5.38075 25.9666,6.35972 33.37533,17.850588 7.00952,12.86581 26.03492,0.59945 31.1581,-8.308938 8.75528,-27.91247 41.39872,-11.59647 57.76691,-28.19668 16.11632,-17.129827 25.94347,-40.692443 48.97371,-50.750742 26.27884,-13.3500401 15.75914,36.339101 25.43653,34.756794 11.66465,-10.353207 25.71674,-3.669145 21.33973,10.999528 -1.72597,14.81815 0.98948,25.95611 15.21343,16.28743 7.30918,-3.7635 8.30649,-14.63673 13.07188,-21.27056 10.54724,-17.770053 24.38606,-43.107345 47.24749,-44.003886 13.71324,-1.759952 22.17033,18.738651 18.58758,29.029939 -10.16022,12.921176 -28.05538,3.470045 -40.65788,11.844264 -9.10346,1.387901 -9.91686,10.390113 -12.77191,17.517093 3.60416,6.63464 7.61666,22.66985 16.01324,10.78611 3.26097,-18.20907 19.59787,-19.72117 35.43611,-20.82019 14.00115,-6.702771 28.76411,1.24993 28.21806,17.52421 1.91888,28.127648 -27.57724,24.475258 -41.91342,9.1708 -15.42998,-2.81558 2.94674,9.867908 4.84228,17.455108 2.85006,11.40784 -23.8799,23.99165 -16.01383,32.18288 32.8408,8.18988 -20.75282,26.07552 -11.61782,45.68368 11.48744,14.54464 38.87231,7.62737 37.88985,32.91223 -5.24247,7.37455 -6.48836,19.61367 -16.84967,21.24399 -11.17159,2.67703 -25.8567,3.59182 -36.0608,-2.60516 -13.41284,-8.40141 -25.57614,-19.25107 -39.85039,-25.87718 -7.02816,10.94334 -18.21792,25.0839 -34.93243,14.8706 -12.4756,-5.97073 -37.23081,-6.9007 -36.22366,11.1992 7.0715,18.83608 18.79725,36.62415 20.844,56.79784 -3.54318,14.32979 -21.64274,20.69845 -33.07683,11.15601 -7.04282,-8.83535 -18.27937,-17.09184 -14.64261,-29.66663 0.30675,-14.3569 6.37511,-51.55847 -16.17552,-28.96229 -13.1175,9.36788 -27.85861,-9.45899 -34.27883,11.52245 -7.03828,17.02535 -25.12806,10.43592 -36.57002,2.01252 -21.41087,-18.11031 -41.08525,21.39712 -62.63292,25.84866 -13.60869,6.53678 -27.68851,-3.84539 -20.59708,-18.76804 6.79049,-22.64744 -14.76912,-28.5053 -28.65525,-13.21816 -12.23411,6.05846 -15.15188,21.56876 -23.14807,31.74413 -5.15229,8.7532 -6.49549,29.09312 -21.76302,23.28166 z m 469.5696,-107.29562 c -7.4148,-17.78156 -27.67215,-29.78379 -27.82306,-48.45871 12.18193,-14.59904 36.4691,-5.46616 44.98748,9.37674 8.7059,9.29862 5.02794,26.816 -0.65538,36.40846 -3.25235,5.48939 -11.70765,10.86601 -16.50904,2.67351 z M 75.86201,107.39743 C 55.209497,105.39567 24.910855,88.822393 33.16635,66.604092 35.826938,59.443558 43.37033,49.53388 52.090771,53.407264 74.896476,56.337269 91.104774,74.008672 108.24451,87.724192 122.48912,104.83032 86.440855,110.89935 75.86201,107.39743 Z M 282.46312,50.79839 c -17.77511,-6.654096 -16.76501,-25.399451 -0.0141,-31.45927 21.23297,-2.82198 17.96495,47.392352 0.0141,31.45927 z"
   style="fill:#000000" />
</svg>